<svg xmlns="http://www.w3.org/2000/svg" viewBox="0 0 1024 1024" role="img" aria-labelledby="title">
  <title id="title">Sigla</title>
  <g fill="#0F9768">
    <path d="m425.54 891.98c5.55-6.24 10.42-12.34 15.92-17.81 62.8-62.54 125.76-124.91 188.46-187.55 6.69-6.68 14.52-9.39 23.29-11.06 25.77-4.88 50.22-13.48 73.59-25.49 15.43-7.94 29.86-17.27 43.57-27.82 2.01-1.55 4.15-4.08 6.83-2.99 3.37 1.37 2.5 5 2.39 7.79-.26 6.51-.7 13.01-1.3 19.49-5.34 57.68-30.98 103.37-79.75 135.57-31.9 21.06-67.77 25.73-104.71 25.41-10-.09-17.31 3.16-24.12 10.15-27.49 28.25-55.31 56.18-82.95 84.29-1.97 2.01-5.72 4-4.63 6.86 1.4 3.68 5.74 2.02 8.77 2.02 40.08-.02 80.16-.23 120.24-.31 13.7-.03 27.35-.39 40.88-2.8 129.39-22.96 227.78-139.35 228.81-271.02.36-46.27-.08-92.54.24-138.81.06-8.52-2.61-14.83-8.66-20.69-27.38-26.51-54.46-53.33-81.75-79.93-2.68-2.61-4.74-6.22-9.48-7.23-.91 10.14-1.59 20.08-2.73 29.97-9.72 84.13-70.99 146.21-154.96 156.76-6.91.87-12.21 3.43-17.04 8.27-54.56 54.65-109.19 109.23-163.86 163.77-13.4 13.37-19.98 29.57-20.17 48.28-.29 28.67-.2 57.35-.21 86.02 0 2.19-.58 4.58 3.34 8.85Z"/>
    <path d="m543.25 580.66-2.24-3.77h-10.52c-38.13.02-76.27.47-114.39-.07-39.35-.56-75.64-12.02-105.54-37.85-55.39-47.85-76.66-108.87-62.8-180.75 14.4-74.68 73.92-129.96 149.18-140.76 23.67-3.4 47.51-1 71.26-1.5 6.17-.13 11.24-1.31 15.77-5.97 28.42-29.18 57.07-58.14 85.56-87.25 2.17-2.22 6.31-4.36 5.14-7.62-1.28-3.56-5.77-1.96-8.82-1.96-53.45-.07-106.9-.23-160.34.09-33.72.21-65.91 8.26-96.47 22.15-122.45 55.63-187.24 186.77-159.04 322.67 27.92 134.56 145.4 224.88 283.46 221.43 5.94-.15 10.61-1.79 14.78-6.06 10.94-11.18 22.01-22.23 33.23-33.13 20.52-19.95 41.17-39.77 61.77-59.64Z"/>
    <path d="M144.08 578.59c-1.17 35.71-3.29 71.44 4.84 106.19 26.56 113.61 95.35 187.85 208.41 219.67 11.7 3.29 12.91 2.07 12.95-10.31.1-30.96-.03-61.93.16-92.89.13-20.52 4.76-40.01 14.34-58.27 8.04-15.32 7.94-15.26-9.61-17.12-62.99-6.69-117.45-32.5-165.13-73.63-25.07-21.63-46.18-46.72-65.96-73.62Z"/>
    <path d="M879.43 411.3c.7-2.14 1.23-3.01 1.24-3.88 1.15-72.85-17.94-138.99-65.14-195.73-41.25-49.58-93.53-81.05-156.5-94.89-4.69-1.03-8.79-1.52-12.61 2.33-29.83 30.04-59.74 59.99-89.61 89.99-1.35 1.36-3.33 2.92-2.64 4.9.97 2.78 3.88 1.81 6.01 1.82 13.03.08 26.06.32 39.08-.04 52.17-1.42 95.84 18.18 132.97 53.71 40.93 39.17 81.64 78.58 122.44 117.89 8.08 7.79 16.15 15.59 24.76 23.89Z"/>
    <path d="M386.66 342.82c40.39-.08 63.55 41.18 51.87 78.98-2.07 6.69-5.97 7.34-10.55 2.21-4.75-5.33-9.14-10.92-14.92-15.32-17.39-13.23-36.9-13.12-53.44 1.07-5.15 4.42-9.49 9.78-14.2 14.71-4.72 4.94-8.64 4.45-10.73-2.17-14.1-44.68 16.78-80.03 51.97-79.47Z"/>
    <path d="M583.45 401.71c.07-26.96 15.49-49 39.58-56.75 21.82-7.01 45.71 1.02 59.54 20.52 12.27 17.29 12.56 36.52 7.47 56.15-1.89 7.29-5.92 8.08-11.08 2.4-5.04-5.55-9.72-11.32-15.86-15.81-18.95-13.88-38.77-12.04-57.23 5.53-.94.9-1.75 1.95-2.76 2.76-4.35 3.5-6.35 12.45-12.83 10.09-7.16-2.61-5.78-11.48-6.78-18.06-.34-2.23-.05-4.55-.05-6.83Z"/>
  </g>
</svg>
